 Full Credits To Feel Free :)

 ######## ######## ######## ##          ######## ########  ######## ######## 
 ##       ##       ##       ##          ##       ##     ## ##       ##       
 ##       ##       ##       ##          ##       ##     ## ##       ##       
 ######   ######   ######   ##          ######   ########  ######   ######   
 ##       ##       ##       ##          ##       ##   ##   ##       ##       
 ##       ##       ##       ##          ##       ##    ##  ##       ##       
 ##       ######## ######## ########    ##       ##     ## ######## ######## 


 Genre:Action | Drama | War
 Language:English  http://www.imdb.com/title/tt1486193
 Source:720p.BluRay.x264-7SinS Thanks!
 Subtitles:Romana

 Format : AVI
 Format/Info : Audio Video Interleave
 File size : 1.42 GiB
 Duration : 1h 53mn
 Overall bit rate : 1 802 Kbps

 Video
 ID : 0
 Format : MPEG-4 Visual
 Format profile : Advanced Simple@L5
 Format settings, BVOP : Yes
 Format settings, QPel : No
 Format settings, GMC : No warppoints
 Format settings, Matrix : Default (H.263)
 Codec ID : XVID
 Codec ID/Hint : XviD
 Duration : 1h 53mn
 Bit rate : 1 344 Kbps
 Width : 640 pixels
 Height : 264 pixels
 Display aspect ratio : 2.40:1
 Frame rate : 23.976 fps
 Color space : YUV
 Chroma subsampling : 4:2:0
 Bit depth : 8 bits
 Scan type : Progressive
 Bits/(Pixel*Frame) : 0.332
 Stream size : 1.06 GiB (75%)
 Writing library : XviD 1.2.1 (UTC 2008-12-04)

 Audio
 ID : 1
 Format : AC-3
 Format/Info : Audio Coding 3
 Mode extension : CM (complete main)
 Codec ID : 2000
 Duration : 1h 53mn
 Bit rate mode : Constant
 Bit rate : 448 Kbps
 Channel(s) : 6 channels
 Channel positions : Front: L C R, Side: L R, LFE
 Sampling rate : 48.0 KHz
 Bit depth : 16 bits
 Stream size : 362 MiB (25%)
 Alignment : Aligned on interleaves
 Interleave, duration : 42 ms (1.00 video frame)
 Interleave, preload duration : 512 ms


 Plot:
 A drama set centered around the war between Russia and Georgia, and focused 
 on an American journalist, his cameraman, and a Georgian native who 
 become caught in the crossfire.






 ==================================  http://thepiratebay.org/user/hiest
 ==================================






 Screen Shots:
  http://leetleech.org/images/55460613628995718882.png
  http://leetleech.org/images/47219249163161535192.png
  http://leetleech.org/images/74695326440670077387.png


 Full Credits To Feel Free :)

 ######## ######## ######## ##          ######## ########  ######## ######## 
 ##       ##       ##       ##          ##       ##     ## ##       ##       
 ##       ##       ##       ##          ##       ##     ## ##       ##       
 ######   ######   ######   ##          ######   ########  ######   ######   
 ##       ##       ##       ##          ##       ##   ##   ##       ##       
 ##       ##       ##       ##          ##       ##    ##  ##       ##       
 ##       ######## ######## ########    ##       ##     ## ######## ######## 
